# xmcd CD database file
#
# Track frame offsets:
#	150
#	21844
#	43091
#	61341
#	78268
#	100798
#	116020
#	144816
#	162098
#	182093
#	204668
#
# Disc length: 3005 seconds
#
# Revision: 0
# Processed by: cddbd v1.5.2PL0 Copyright (c) Steve Scherf et al.
# Submitted via: CDex 1.51
#
DISCID=8a0bbb0b
DTITLE=Jackie Greene - Back To Birth
DYEAR=2015
DGENRE=Country
TTITLE0=Silver Lining 
TTITLE1=Now I Can See For Miles
TTITLE2=A Face Among The Crowd
TTITLE3=Light Up Your Window 
TTITLE4=Trust Somebody
TTITLE5=Motorhome
TTITLE6=Hallelujah 
TTITLE7=The King Is Dead
TTITLE8=Where The Downhearted Go
TTITLE9=You Cant Have Bad Luck All The Time 
TTITLE10=Jackie Greene - Back To Birth
EXTD=YEAR: 2015
EXTT0=
EXTT1=
EXTT2=
EXTT3=
EXTT4=
EXTT5=
EXTT6=
EXTT7=
EXTT8=
EXTT9=
EXTT10=
PLAYORDER=
